Coordinates
version=1
nRows=7
nColumns=63
inDegrees=yes

Units are S.I. units (second, meters, Newtons, ...)
If the header above contains a line with 'inDegrees', this indicates whether rotational values are in degrees (yes) or radians (no).

endheader
time	pelvis_tilt	pelvis_list	pelvis_rotation	pelvis_tx	pelvis_ty	pelvis_tz	hip_flexion_r	hip_adduction_r	hip_rotation_r	knee_angle_r	knee_angle_r_beta	ankle_angle_r	subtalar_angle_r	mtp_angle_r	hip_flexion_l	hip_adduction_l	hip_rotation_l	knee_angle_l	knee_angle_l_beta	ankle_angle_l	subtalar_angle_l	mtp_angle_l	L5_S1_Flex_Ext	L5_S1_Lat_Bending	L5_S1_axial_rotation	L4_L5_Flex_Ext	L4_L5_Lat_Bending	L4_L5_axial_rotation	L3_L4_Flex_Ext	L3_L4_Lat_Bending	L3_L4_axial_rotation	L2_L3_Flex_Ext	L2_L3_Lat_Bending	L2_L3_axial_rotation	L1_L2_Flex_Ext	L1_L2_Lat_Bending	L1_L2_axial_rotation	L1_T12_Flex_Ext	L1_T12_Lat_Bending	L1_T12_axial_rotation	Abs_r3	Abs_r2	Abs_r1	Abs_t1	Abs_t2	neck_flexion	neck_bending	neck_rotation	arm_flex_r	arm_add_r	arm_rot_r	elbow_flex_r	pro_sup_r	wrist_flex_r	wrist_dev_r	arm_flex_l	arm_add_l	arm_rot_l	elbow_flex_l	pro_sup_l	wrist_flex_l	wrist_dev_l
      1.19148936	      2.08059886	     -4.10180877	    113.92807303	      0.21316585	      0.64423321	      0.84117549	     10.17767826	     -4.60619422	    -12.68324462	     18.13238583	      0.31646983	     26.19711984	      1.84239608	      0.00000000	     13.30233566	      1.71473472	     -2.27156160	     14.26067108	      0.24889566	     29.94585002	     13.38181822	      0.00000000	     -0.17361490	     -0.45965163	      2.96612878	     -0.32242022	     -0.61133666	      3.15151183	     -0.28523191	     -1.11759696	      3.15151183	     -0.19842446	     -1.11759696	      2.59536268	     -0.16121879	     -0.93732160	      2.40997964	     -0.09920355	     -0.71200037	      2.22459659	     -1.24011384	     -5.19967113	     16.49671845	      0.00000000	      0.00000000	     -1.18408241	      0.27416041	     -6.90406224	      0.06300305	    -11.79003643	     29.23316506	     97.78326169	     81.96088097	      4.75770178	     -0.32759870	     -3.74762270	     -4.58877899	     19.18772227	     97.00168936	     76.53729044	     -1.87276912	     -7.22508760
      1.21276596	      2.02766910	     -3.95540484	    113.36753983	      0.21623711	      0.64570604	      0.84127950	      9.52599993	     -4.37988878	    -13.06432700	     17.02625486	      0.29716421	     25.38936339	      3.21570046	      0.00000000	     13.73437914	      1.43629620	     -2.47788957	     15.37961544	      0.26842493	     29.82320792	     11.85379368	      0.00000000	     -0.22717800	     -0.41646679	      2.90190468	     -0.42189226	     -0.55390083	      3.08327372	     -0.37323073	     -1.01259736	      3.08327372	     -0.25964173	     -1.01259736	      2.53916660	     -0.21095749	     -0.84925908	      2.35779755	     -0.12980951	     -0.64510706	      2.17642851	     -1.62270972	     -4.71115563	     16.13952327	      0.00000000	      0.00000000	     -0.57496878	      1.55475748	     -5.75073067	      0.75004460	    -11.74629620	     29.76083547	     97.15702227	     82.09327871	      5.17983922	     -0.17082037	     -4.03088979	     -4.24839816	     18.06876047	     97.26664542	     78.49477195	     -2.21821042	     -6.75526548
      1.23404255	      1.94021490	     -3.89538791	    112.65061466	      0.21984569	      0.64680084	      0.84118909	      9.10876104	     -4.18823707	    -13.14084325	     15.99795674	      0.27921702	     24.83270202	      4.70032462	      0.00000000	     14.23003831	      1.20622409	     -2.65336541	     16.55084624	      0.28886676	     29.62481953	      9.47196692	      0.00000000	     -0.25828705	     -0.39129388	      2.76017944	     -0.47966488	     -0.52042085	      2.93269065	     -0.42433980	     -0.95139193	      2.93269065	     -0.29519627	     -0.95139193	      2.41515701	     -0.23984536	     -0.79792647	      2.24264579	     -0.14758522	     -0.60611421	      2.07013458	     -1.84491857	     -4.42639458	     15.35128997	      0.00000000	      0.00000000	      0.41541584	      2.34467576	     -4.10793553	      1.54625460	    -11.17676153	     30.56701341	     95.86800899	     82.34720915	      4.73094070	      0.05868687	     -4.55174245	     -4.74536378	     16.63841298	     97.58650556	     80.46268248	     -2.96467645	     -5.90839405
      1.25531915	      1.89395594	     -3.62126693	    111.86005941	      0.22402943	      0.64761437	      0.84141113	      8.62788134	     -3.79652964	    -12.66401094	     15.00114947	      0.26181945	     24.42318240	      5.77430949	      0.00000000	     14.61149564	      0.76517342	     -3.31049511	     17.87825388	      0.31203439	     29.55588387	      7.24628574	      0.00000000	     -0.28682502	     -0.35834726	      2.70566073	     -0.53266274	     -0.47660185	      2.87476453	     -0.47122482	     -0.87128552	      2.87476453	     -0.32781231	     -0.87128552	      2.36745314	     -0.26634571	     -0.73074172	      2.19834934	     -0.16389181	     -0.55507990	      2.02924555	     -2.04876241	     -4.05369583	     15.04807329	      0.00000000	      0.00000000	      1.88082806	      2.90145640	     -2.96638837	      2.24384788	    -10.69883340	     31.35025400	     94.40602616	     82.55596625	      3.84772280	      0.30720200	     -4.74097539	     -5.79624059	     15.79285031	     97.38042212	     81.42823203	     -3.58312736	     -4.89680577
      1.27659574	      1.82418811	     -3.22171517	    111.11108025	      0.22817541	      0.64826832	      0.84135942	      8.08389988	     -3.40608976	    -12.02318013	     14.20769832	      0.24797111	     24.31924932	      6.87975316	      0.00000000	     14.60867210	      0.48246081	     -3.25973159	     18.75753648	      0.32738077	     29.36550005	      3.92801309	      0.00000000	     -0.29466458	     -0.32051704	      2.66255316	     -0.54722159	     -0.42628766	      2.82896273	     -0.48410444	     -0.77930512	      2.82896273	     -0.33677215	     -0.77930512	      2.32973402	     -0.27362553	     -0.65359834	      2.16332444	     -0.16837134	     -0.49648089	      1.99691487	     -2.10475963	     -3.62575282	     14.80832192	      0.00000000	      0.00000000	      3.61278141	      3.42676008	     -1.08881994	      3.19089419	    -10.57201625	     33.09523724	     92.91715205	     82.30326332	      1.41072210	      0.19862747	     -5.28459071	     -7.15575832	     14.66435060	     97.23114887	     83.41853758	     -4.09148264	     -3.19215833
      1.29787234	      1.71684461	     -2.71042335	    110.98407453	      0.23126610	      0.64886112	      0.84129147	      7.25689520	     -3.06918665	    -11.41495958	     13.35892836	      0.23315728	     24.45641218	      7.43112549	      0.00000000	     14.40759390	      0.38127265	     -2.87886570	     19.48800442	      0.34012984	     29.21201390	      1.04911843	      0.00000000	     -0.29806693	     -0.28228829	      2.58312368	     -0.55354009	     -0.37544342	      2.74456891	     -0.48969415	     -0.68635574	      2.74456891	     -0.34066069	     -0.68635574	      2.26023322	     -0.27678495	     -0.57564227	      2.09878799	     -0.17031544	     -0.43726456	      1.93734276	     -2.12906225	     -3.19330155	     14.36655897	      0.00000000	      0.00000000	      5.54674029	      2.99855099	     -0.26886230	      3.92427326	    -10.82431997	     34.83181059	     92.19173752	     81.68697446	     -1.62283822	      0.33879610	     -6.05111391	     -8.64495677	     13.51409205	     96.75144527	     85.33052102	     -4.00205615	     -2.00447689
      1.31914894	      1.48012957	     -2.18774701	    111.01324555	      0.23399805	      0.64954603	      0.84102230	      6.37887723	     -2.89162881	    -10.82199549	     12.63763725	      0.22056838	     24.73144958	      7.72585926	      0.00000000	     14.05824050	      0.32041270	     -3.38837816	     20.15708211	      0.35180745	     29.35765079	     -0.15259969	      0.00000000	     -0.30099845	     -0.26506898	      2.53612849	     -0.55898422	     -0.35254174	      2.69463652	     -0.49451035	     -0.64448871	      2.69463652	     -0.34401113	     -0.64448871	      2.21911243	     -0.27950716	     -0.54052866	      2.06060440	     -0.17199051	     -0.41059184	      1.90209637	     -2.15000183	     -2.99851327	     14.10518584	      0.00000000	      0.00000000	      7.77808175	      2.02380647	     -0.00725555	      4.22036816	    -11.22503624	     35.58515789	     92.16457702	     82.03742081	     -2.48730398	      0.87126142	     -7.08118162	    -10.35399556	     12.59071537	     96.14261234	     86.13396080	     -4.12547765	     -1.67847754
